<?xml version="1.0" encoding="utf-8"?>
<!-- Generator: Adobe Illustrator 24.0.0, SVG Export Plug-In . SVG Version: 6.00 Build 0)  -->
<svg version="1.1" id="Layer_1" xmlns="http://www.w3.org/2000/svg" xmlns:xlink="http://www.w3.org/1999/xlink" x="0px" y="0px"
	 viewBox="0 0 500 355.3" style="enable-background:new 0 0 500 355.3;" xml:space="preserve">
<style type="text/css">
	.st0{fill:#B3432A;}
</style>
<g>
	<path class="st0" d="M0,145.1v210.2h23.7V236.8l77.1-0.4l38.5,0c19.4,0,36.5,11.6,43.8,29.2c0.5,1.2,0.9,2.4,1.3,3.7l28.5,86h25
		l-31-93.2c-0.8-2.4-1.6-4.7-2.6-7c-3.1-7.1-7.3-13.4-12.3-19c-1.1-1.2-2.3-2.4-3.4-3.6c28.6-9.2,49.5-36.1,49.5-67.7V0l-194,79.3
		C17.3,90.3,0,116.1,0,145.1z M214.5,35.3v129.6c0,26-21.1,47.2-47.1,47.4l-66.6,0.4l-1.7,0v0l-75.4,0.4v-68
		c0-19.3,11.6-36.6,29.5-43.9L214.5,35.3z"/>
	<path class="st0" d="M455.8,79.3L261.8,0v59h23.7V35.3l94.2,38.5v38.3h2.4V74.8l64.7,26.5c17.9,7.3,29.5,24.5,29.5,43.9v186.5
		H285.5V308h-23.7v47.4H500V145.1C500,116.1,482.7,90.3,455.8,79.3z"/>
	<path class="st0" d="M138.6,260.2H47.4v95.1h141.9l-21.4-69C163.6,272.1,152.1,262,138.6,260.2z"/>
	<path class="st0" d="M380.9,112.2c-13.1,0-23.7,10.6-23.7,23.7h47.4C404.6,122.8,394,112.2,380.9,112.2z"/>
	<path class="st0" d="M347.7,243.9l1.5,3.1c0.5,1.1,2,1.4,2.9,0.6c7.6-6.5,17.4-10.2,27.5-10.2c8.5,0,16.8,2.4,24,6.9
		c1.8,1.1,3.5,2.4,5.1,3.7c0.9,0.8,2.4,0.5,2.9-0.6l1.7-3.6c1.7-3.5,1.9-7.5,0.6-11.2c-5.1-14.6-19.3-51.7-33.3-51.7
		c-14,0-28.3,37-33.3,51.6C345.9,236.3,346.1,240.4,347.7,243.9z"/>
	<path class="st0" d="M398.7,252.2c-5.6-3.5-12.2-5.5-19.1-5.5c-9.1,0-17.7,3.8-23.8,10.2l-0.1,0.1c-0.7,0.7-0.9,1.8-0.5,2.8
		l2.8,5.9c0,0,0,0,0,0c0.4,0.8,1.3,1.3,2.2,1.3l40.5,0c0.9,0,1.8-0.5,2.2-1.4c0,0,0,0,0,0l2.6-5.5c0.5-1,0.2-2.1-0.5-2.8
		c-0.2-0.2-0.3-0.3-0.5-0.5C402.8,255.1,400.8,253.5,398.7,252.2z"/>
	<path class="st0" d="M339.6,248.3l-0.8-1.6h-12c-6.5,0-10.8,6.8-8.1,12.6l9.5,20.4c1.3,2.7,2.7,5.1,4.4,7.3
		c3.3,4.3,7.2,7.7,11.6,9.9v34.6h5.9l5.5-31.6c0.4,0,0.9,0,1.3,0H404c1,0,2-0.1,3-0.2l5.5,31.7h5.9V296c3.7-2.2,7.1-5.2,9.9-8.9
		c1.7-2.2,3.1-4.6,4.4-7.3l9.6-20.4c2.8-5.9-1.5-12.7-8-12.7h-12.2l-0.8,1.6l-4,8.5l-6,12.7c-0.6,1.2-1.3,2.3-2,3.3
		c-1.7,2.1-3.6,3.4-5.4,3.4H357c-1.7,0-3.5-1.1-5-3c-0.8-1-1.6-2.2-2.3-3.6l-6-12.8L339.6,248.3z"/>
</g>
</svg>
