<?xml version="1.0" encoding="utf-8"?>
<!-- Generator: Adobe Illustrator 24.0.0, SVG Export Plug-In . SVG Version: 6.00 Build 0)  -->
<svg version="1.1" id="Layer_1" xmlns="http://www.w3.org/2000/svg" xmlns:xlink="http://www.w3.org/1999/xlink" x="0px" y="0px"
	 viewBox="0 0 22.7 22.9" style="enable-background:new 0 0 22.7 22.9;" xml:space="preserve">
<style type="text/css">
	.st0{fill:#25D366;}
	.st1{fill-rule:evenodd;clip-rule:evenodd;fill:#FFFFFF;}
</style>
<path class="st0" d="M22.7,11c0.1,2.9-0.9,5.8-2.8,7.9c-2.1,2.4-5,3.8-8.2,3.8h-0.3c-1.7,0-3.4-0.4-4.9-1.1l-6,1.3
	c0,0-0.1,0-0.1-0.1l1-6c-0.9-1.6-1.3-3.3-1.4-5.1c-0.1-3,1-5.9,3.1-8.1C5.2,1.3,8.2,0,11.4,0c2.9,0,5.7,1.2,7.8,3.2
	C21.3,5.3,22.6,8,22.7,11z"/>
<path class="st1" d="M16.7,14.2c0-0.1-0.2-0.1-0.5-0.3c-0.3-0.2-1.6-0.9-1.9-1c-0.1-0.1-0.2-0.1-0.3-0.1c-0.1,0-0.2,0-0.3,0.2
	c-0.2,0.3-0.7,0.9-0.9,1.1c-0.1,0-0.2,0.1-0.3,0.1c-0.1,0-0.2,0-0.3-0.1c-0.3-0.2-1.1-0.5-2.2-1.5c-0.8-0.8-1.3-1.7-1.5-2
	c-0.2-0.3,0-0.5,0.1-0.6C8.7,9.9,8.9,9.7,9,9.5C9.1,9.3,9.2,9.2,9.3,9s0.1-0.4,0-0.5C9.2,8.4,8.7,7,8.5,6.4C8.3,5.9,8.1,5.9,7.9,5.9
	H7.4c-0.2,0-0.5,0-1,0.4C6.1,6.5,5.3,7.2,5.3,8.6c0,1.4,1,2.8,1.1,3c0.1,0.2,1.8,3.3,4.7,4.5c1.7,0.7,2.4,0.8,2.9,0.8h0.5
	c0.6,0,1.7-0.6,2-1.3C16.7,14.9,16.8,14.3,16.7,14.2z M16.7,14.2c0-0.1-0.2-0.1-0.5-0.3c-0.3-0.2-1.6-0.9-1.9-1
	c-0.1-0.1-0.2-0.1-0.3-0.1c-0.1,0-0.2,0-0.3,0.2c-0.2,0.3-0.7,0.9-0.9,1.1c-0.1,0-0.2,0.1-0.3,0.1c-0.1,0-0.2,0-0.3-0.1
	c-0.3-0.2-1.1-0.5-2.2-1.5c-0.8-0.8-1.3-1.7-1.5-2c-0.2-0.3,0-0.5,0.1-0.6C8.7,9.9,8.9,9.7,9,9.5C9.1,9.3,9.2,9.2,9.3,9
	s0.1-0.4,0-0.5C9.2,8.4,8.7,7,8.5,6.4C8.3,5.9,8.1,5.9,7.9,5.9H7.4c-0.2,0-0.5,0-1,0.4C6.1,6.5,5.3,7.2,5.3,8.6c0,1.4,1,2.8,1.1,3
	c0.1,0.2,1.8,3.3,4.7,4.5c1.7,0.7,2.4,0.8,2.9,0.8h0.5c0.6,0,1.7-0.6,2-1.3C16.7,14.9,16.8,14.3,16.7,14.2z M19.2,3.2
	c-2.1-2-4.9-3.2-7.8-3.2C8.2,0,5.2,1.3,3.1,3.6C1,5.8-0.1,8.7,0,11.7c0.1,1.8,0.5,3.5,1.4,5.1l-1,6c0,0.1,0.1,0.1,0.1,0.1l6-1.3
	c1.5,0.7,3.2,1.1,4.9,1.1h0.3c3.2,0,6.1-1.4,8.2-3.8c1.9-2.1,2.9-5,2.8-7.9C22.6,8,21.3,5.3,19.2,3.2z M11.7,20.9h-0.3
	c-1.5,0-3-0.4-4.3-1.1l-0.3-0.2l-4,1l0.7-4.1l-0.2-0.3C2.5,14.8,2,13.3,2,11.7C1.8,6.5,5.9,2.1,11.1,2h0.3c5,0,9.2,4,9.4,9.2
	S16.9,20.8,11.7,20.9z M16.2,13.9c-0.3-0.2-1.6-0.9-1.9-1c-0.1-0.1-0.2-0.1-0.3-0.1c-0.1,0-0.2,0-0.3,0.2c-0.2,0.3-0.7,0.9-0.9,1.1
	c-0.1,0-0.2,0.1-0.3,0.1c-0.1,0-0.2,0-0.3-0.1c-0.3-0.2-1.1-0.5-2.2-1.5c-0.8-0.8-1.3-1.7-1.5-2c-0.2-0.3,0-0.5,0.1-0.6
	C8.7,9.9,8.9,9.7,9,9.5C9.1,9.3,9.2,9.2,9.3,9s0.1-0.4,0-0.5C9.2,8.4,8.7,7,8.5,6.4C8.3,5.9,8.1,5.9,7.9,5.9H7.4c-0.2,0-0.5,0-1,0.4
	C6.1,6.5,5.3,7.2,5.3,8.6c0,1.4,1,2.8,1.1,3c0.1,0.2,1.8,3.3,4.7,4.5c1.7,0.7,2.4,0.8,2.9,0.8h0.5c0.6,0,1.7-0.6,2-1.3
	c0.2-0.7,0.3-1.3,0.2-1.4C16.7,14.1,16.5,14.1,16.2,13.9z"/>
</svg>
